<svg xmlns="http://www.w3.org/2000/svg" xmlns:svg="http://www.w3.org/2000/svg" xmlns:xlink="http://www.w3.org/1999/xlink" id="Layer_1" width="242" height="242" version="1.1" viewBox="0 0 242 242"><defs id="defs594"><linearGradient id="linear-gradient" x1="128.32" x2="134.8" y1="192.17" y2="178.13" gradientUnits="userSpaceOnUse"><stop id="stop531" offset="0" stop-color="#1877f2" stop-opacity=".4"/><stop id="stop533" offset="1" stop-color="#d1e4fc" stop-opacity=".05"/></linearGradient><linearGradient id="linear-gradient-2" x1="127.91" x2="131.15" y1="215.66" y2="209.18" xlink:href="#linear-gradient"/><linearGradient id="linear-gradient-3" x1="174.35" x2="169.49" y1="215.7" y2="205.98" xlink:href="#linear-gradient"/><linearGradient id="linear-gradient-4" x1="127.98" x2="132.3" y1="206.8" y2="197.62" xlink:href="#linear-gradient"/><linearGradient id="linear-gradient-5" x1="204.62" x2="158.71" y1="288.6" y2="175.72" gradientUnits="userSpaceOnUse"><stop id="stop539" offset=".71" stop-color="#1877f2" stop-opacity=".4"/><stop id="stop541" offset=".86" stop-color="#d1e4fc" stop-opacity=".05"/></linearGradient><linearGradient id="linear-gradient-6" x1="6.84" x2="818.28" y1="116.78" y2="116.78" gradientUnits="userSpaceOnUse"><stop id="stop544" offset="0" stop-color="#247ef2" stop-opacity="0"/><stop id="stop546" offset="1" stop-color="#d1e4fc"/></linearGradient><linearGradient id="linear-gradient-7" x1="170.01" x2="190.28" y1="169.06" y2="169.06" gradientUnits="userSpaceOnUse"><stop id="stop549" offset="0" stop-color="#1877f2"/><stop id="stop551" offset="1" stop-color="#d1e4fc"/></linearGradient><linearGradient id="linear-gradient-8" x1="206.49" x2="247.49" y1="147.41" y2="147.41" xlink:href="#linear-gradient-7"/><linearGradient id="linear-gradient-9" x1="253.32" x2="272.09" y1="129.18" y2="129.18" xlink:href="#linear-gradient-7"/><linearGradient id="linear-gradient-10" x1="33.19" x2="85.32" y1="141.06" y2="141.06" xlink:href="#linear-gradient-7"/><linearGradient id="linear-gradient-11" x1="95.6" x2="113.21" y1="161.92" y2="161.92" xlink:href="#linear-gradient-7"/><linearGradient id="linear-gradient-12" x1="121.58" x2="127.99" y1="171.34" y2="171.34" xlink:href="#linear-gradient-7"/><linearGradient id="linear-gradient-13" x1="138.84" x2="144.06" y1="178.87" y2="178.87" xlink:href="#linear-gradient-7"/><linearGradient id="linear-gradient-14" x1="157.83" x2="165.56" y1="177.59" y2="177.59" xlink:href="#linear-gradient-7"/><linearGradient id="linear-gradient-15" x1="178.92" x2="89.34" y1="87.64" y2="125.75" gradientUnits="userSpaceOnUse"><stop id="stop561" offset="0" stop-color="#247ef2" stop-opacity=".2"/><stop id="stop563" offset="1" stop-color="#1877f2"/></linearGradient><linearGradient id="linear-gradient-16" x1="117.75" x2="140.02" y1="105.99" y2="47.77" gradientUnits="userSpaceOnUse"><stop id="stop566" offset="0" stop-color="#247ef2" stop-opacity=".2"/><stop id="stop568" offset=".64" stop-color="#1877f2"/><stop id="stop570" offset=".85" stop-color="#55a6ff" stop-opacity="0"/><stop id="stop572" offset=".86" stop-color="#1877f2" stop-opacity=".3"/><stop id="stop574" offset="1" stop-color="#1877f2" stop-opacity=".1"/></linearGradient><linearGradient id="linear-gradient-17" x1="162.9" x2="167.24" y1="109.7" y2="144.66" xlink:href="#linear-gradient-15"/><linearGradient id="linear-gradient-18" x1="147.62" x2="169.89" y1="117.42" y2="59.19" xlink:href="#linear-gradient-16"/><linearGradient id="linear-gradient-19" x1="82.59" x2="72.77" y1="83.88" y2="105.93" gradientUnits="userSpaceOnUse"><stop id="stop579" offset="0" stop-color="#247ef2" stop-opacity=".2"/><stop id="stop581" offset=".03" stop-color="#247ef2" stop-opacity=".1"/><stop id="stop583" offset="1" stop-color="#1877f2" stop-opacity="0"/></linearGradient><linearGradient id="linear-gradient-20" x1="113.23" x2="106.78" y1="142.31" y2="156.79" xlink:href="#linear-gradient-19"/><linearGradient id="linear-gradient-21" x1="119.24" x2="99.82" y1="101.77" y2="145.34" xlink:href="#linear-gradient-19"/><linearGradient id="linear-gradient-22" x1="155.61" x2="126.6" y1="92.95" y2="158.05" xlink:href="#linear-gradient-19"/><linearGradient id="linear-gradient-23" x1="168.35" x2="140.41" y1="87.61" y2="150.31" xlink:href="#linear-gradient-19"/><linearGradient id="linear-gradient-24" x1="224.28" x2="201.86" y1="60.17" y2="110.49" xlink:href="#linear-gradient-19"/><linearGradient id="linear-gradient-25" x1="195.04" x2="172.62" y1="47.07" y2="97.39" xlink:href="#linear-gradient-19"/><linearGradient id="linear-gradient-26" x1="197.7" x2="175.27" y1="70.52" y2="120.84" xlink:href="#linear-gradient-19"/><linearGradient id="linear-gradient-27" x1="203.43" x2="181" y1="68.03" y2="118.35" xlink:href="#linear-gradient-19"/><linearGradient id="linearGradient653" x1="128.32" x2="134.8" y1="192.17" y2="178.13" gradientUnits="userSpaceOnUse" xlink:href="#linear-gradient"/><linearGradient id="linearGradient655" x1="170.01" x2="190.28" y1="169.06" y2="169.06" gradientUnits="userSpaceOnUse" xlink:href="#linear-gradient-7"/><linearGradient id="linearGradient657" x1="178.92" x2="89.34" y1="87.64" y2="125.75" gradientUnits="userSpaceOnUse" xlink:href="#linear-gradient-15"/><linearGradient id="linearGradient659" x1="117.75" x2="140.02" y1="105.99" y2="47.77" gradientUnits="userSpaceOnUse" xlink:href="#linear-gradient-16"/><linearGradient id="linearGradient661" x1="82.59" x2="72.77" y1="83.88" y2="105.93" gradientUnits="userSpaceOnUse" xlink:href="#linear-gradient-19"/></defs><g id="g690" transform="translate(0,25.423729)"><polygon points="150 99.53 269.48 145.2 150 200.42 30.52 145.2" style="fill:url(#linearGradient653)" id="polygon596" transform="translate(-30.52,-36.94)"/><polygon points="150 125.8 269.48 171.47 150 226.69 30.52 171.47" style="opacity:.2;fill:url(#linear-gradient-2)" id="polygon598" transform="translate(-30.52,-36.94)"/><polygon points="150 121.33 269.48 167 150 222.22 30.52 167" style="opacity:.3;fill:url(#linear-gradient-3)" id="polygon600" transform="translate(-30.52,-36.94)"/><polygon points="150 114.34 269.48 160.02 150 215.23 30.52 160.02" style="opacity:.4;fill:url(#linear-gradient-4)" id="polygon602" transform="translate(-30.52,-36.94)"/><polygon points="150 108.62 269.48 154.29 150 209.5 30.52 154.29" style="opacity:.6;fill:url(#linear-gradient-5)" id="polygon604" transform="translate(-30.52,-36.94)"/><polygon points="150 66.33 269.48 112.01 150 167.22 30.52 112.01" style="fill:url(#linear-gradient-6)" id="polygon606" transform="translate(-30.52,-36.94)"/><line id="line608" x1="157.15" x2="142.1" y1="128.65" y2="135.6" style="fill:none;stroke:url(#linearGradient655);stroke-width:5.22px;stroke-linecap:round;stroke-linejoin:round"/><line id="line610" x1="214.36" x2="178.58" y1="102.21" y2="118.74" style="fill:none;stroke:url(#linear-gradient-8);stroke-width:5.22px;stroke-linecap:round;stroke-linejoin:round"/><polyline points="260.44 124.32 269.48 127.78 255.93 134.04" style="fill:none;stroke:url(#linear-gradient-9);stroke-width:5.22px;stroke-linecap:round;stroke-linejoin:round" id="polyline612" transform="translate(-30.52,-36.94)"/><line id="line614" x1="5.28" x2="52.19" y1="93.28" y2="114.96" style="fill:none;stroke:url(#linear-gradient-10);stroke-width:5.22px;stroke-linecap:round;stroke-linejoin:round"/><line id="line616" x1="80.08" x2="67.69" y1="127.85" y2="122.12" style="fill:none;stroke:url(#linear-gradient-11);stroke-width:5.22px;stroke-linecap:round;stroke-linejoin:round"/><line id="line618" x1="94.86" x2="93.67" y1="134.67" y2="134.13" style="fill:none;stroke:url(#linear-gradient-12);stroke-width:5.22px;stroke-linecap:round;stroke-linejoin:round"/><line id="line620" x1="110.93" x2="110.93" y1="141.93" y2="141.93" style="fill:none;stroke:url(#linear-gradient-13);stroke-width:5.22px;stroke-linecap:round;stroke-linejoin:round"/><line id="line622" x1="132.43" x2="129.92" y1="140.07" y2="141.23" style="fill:none;stroke:url(#linear-gradient-14);stroke-width:5.22px;stroke-linecap:round;stroke-linejoin:round"/><polygon points="177.1 82.11 71.37 122.53 90.63 131.43 198.38 90.24" style="fill:url(#linearGradient657)" id="polygon624" transform="translate(-30.52,-36.94)"/><polygon points="177.1 36.94 71.37 77.36 90.63 86.26 198.38 45.07" style="fill:url(#linearGradient659)" id="polygon626" transform="translate(-30.52,-36.94)"/><polygon points="206.34 95.2 100.61 135.62 119.87 144.53 227.62 103.34" style="fill:url(#linear-gradient-17)" id="polygon628" transform="translate(-30.52,-36.94)"/><polygon points="206.34 50.03 100.61 90.45 119.87 99.36 227.62 58.17" style="fill:url(#linear-gradient-18)" id="polygon630" transform="translate(-30.52,-36.94)"/><polygon points="90.63 97.55 71.37 104.9 71.37 77.36 90.63 86.26" style="fill:url(#linearGradient661)" id="polygon632" transform="translate(-30.52,-36.94)"/><polygon points="119.87 162.36 100.61 153.47 100.61 135.68 119.87 144.59" style="fill:url(#linear-gradient-20)" id="polygon634" transform="translate(-30.52,-36.94)"/><polygon points="119.87 153.47 100.61 144.58 100.61 90.46 119.87 99.36" style="fill:url(#linear-gradient-21)" id="polygon636" transform="translate(-30.52,-36.94)"/><polygon points="151.8 168.08 132.54 159.18 132.54 78.16 151.8 87.07" style="fill:url(#linear-gradient-22)" id="polygon638" transform="translate(-30.52,-36.94)"/><polygon points="165.04 160.13 145.77 151.23 145.77 73.21 165.04 82.11" style="fill:url(#linear-gradient-23)" id="polygon640" transform="translate(-30.52,-36.94)"/><polygon points="227.62 103.31 206.23 111.51 206.23 50.03 227.62 58.17" style="fill:url(#linear-gradient-24)" id="polygon642" transform="translate(-30.52,-36.94)"/><polygon points="198.38 90.22 177 98.41 177 36.94 198.38 45.07" style="fill:url(#linear-gradient-25)" id="polygon644" transform="translate(-30.52,-36.94)"/><polygon points="201.03 113.67 179.65 121.86 179.65 60.39 201.03 68.52" style="fill:url(#linear-gradient-26)" id="polygon646" transform="translate(-30.52,-36.94)"/><polygon points="206.76 111.18 185.38 119.38 185.38 57.9 206.76 66.04" style="fill:url(#linear-gradient-27)" id="polygon648" transform="translate(-30.52,-36.94)"/></g></svg>