<svg xmlns="http://www.w3.org/2000/svg" xmlns:svg="http://www.w3.org/2000/svg" id="Layer_1" width="206" height="206" version="1.1" viewBox="0 0 206 206"><defs id="defs778"><linearGradient id="linear-gradient" x1="150" x2="150" y1="21.59" y2="177.2" gradientUnits="userSpaceOnUse"><stop id="stop773" offset="0" stop-color="#247ef2"/><stop id="stop775" offset="1" stop-color="#d1e4fc"/></linearGradient></defs><g id="g894" transform="translate(-47.199268,-10.402542)"><rect id="rect780" width="12.64" height="102.55" x="143.68" y="61.75" style="fill:url(#linear-gradient)"/><rect id="rect782" width="8.23" height="102.55" x="165.59" y="61.75" style="fill:#74adf7"/><rect id="rect784" width="5.55" height="102.55" x="128.86" y="61.75" style="fill:#74adf7"/><rect id="rect786" width="2.77" height="102.55" x="94.88" y="61.75" style="fill:#74adf7"/><rect id="rect788" width="4.75" height="102.55" x="84.02" y="61.75" style="fill:#74adf7"/><rect id="rect790" width="12.67" height="102.55" x="106.92" y="61.75" style="fill:#74adf7"/><rect id="rect792" width="6.53" height="102.55" x="186.41" y="61.75" style="fill:#74adf7"/><rect id="rect794" width="10.45" height="102.55" x="205.53" y="61.75" style="fill:#74adf7"/><rect id="rect796" width="6" height="6" x="147" y="148.51" style="fill:#fff"/><rect id="rect798" width="6" height="1.57" x="147" y="135.17" style="fill:#fff"/><rect id="rect800" width="6" height=".78" x="147" y="131.33" style="fill:#fff"/><rect id="rect802" width="6" height=".53" x="147" y="111.27" style="fill:#fff"/><rect id="rect804" width="6" height=".27" x="147" y="107.73" style="fill:#fff"/><rect id="rect806" width="6" height="2.62" x="147" y="103.94" style="fill:#fff"/><rect id="rect808" width="6" height=".39" x="147" y="128.95" style="fill:#fff"/><rect id="rect810" width="6" height=".39" x="147" y="127.95" style="fill:#fff"/><rect id="rect812" width="6" height=".39" x="147" y="115.08" style="fill:#fff"/><rect id="rect814" width="6" height=".2" x="147" y="126.94" style="fill:#fff"/><rect id="rect816" width="6" height=".2" x="147" y="125.94" style="fill:#fff"/><rect id="rect818" width="6" height=".2" x="147" y="124.94" style="fill:#fff"/><rect id="rect820" width="6" height=".2" x="147" y="123.94" style="fill:#fff"/><rect id="rect822" width="6" height=".2" x="147" y="121.94" style="fill:#fff"/><rect id="rect824" width="6" height=".2" x="147" y="118.61" style="fill:#fff"/><rect id="rect826" width="6" height=".78" x="147" y="72.87" transform="rotate(180,150,73.26)" style="fill:#fff"/><rect id="rect828" width="6" height=".53" x="147" y="93.17" transform="rotate(180,150,93.44)" style="fill:#fff"/><rect id="rect830" width="6" height=".27" x="147" y="96.99" transform="rotate(180,150,97.12)" style="fill:#fff"/><rect id="rect832" width="6" height=".39" x="147" y="75.64" transform="rotate(180,150,75.84)" style="fill:#fff"/><rect id="rect834" width="6" height=".39" x="147" y="76.64" transform="rotate(180,150,76.84)" style="fill:#fff"/><rect id="rect836" width="6" height=".39" x="147" y="89.51" transform="rotate(180,150,89.705)" style="fill:#fff"/><rect id="rect838" width="6" height=".2" x="147" y="77.84" transform="rotate(180,150,77.94)" style="fill:#fff"/><rect id="rect840" width="6" height=".2" x="147" y="78.84" transform="rotate(180,150,78.94)" style="fill:#fff"/><rect id="rect842" width="6" height=".2" x="147" y="79.84" transform="rotate(180,150,79.94)" style="fill:#fff"/><rect id="rect844" width="6" height=".2" x="147" y="80.84" transform="rotate(180,150,80.94)" style="fill:#fff"/><rect id="rect846" width="6" height=".2" x="147" y="82.85" transform="rotate(180,150,82.945)" style="fill:#fff"/><rect id="rect848" width="6" height=".2" x="147" y="86.18" transform="rotate(180,150,86.275)" style="fill:#fff"/><polyline points="64.02 164.31 47.85 164.31 47.7 61.75 64.02 61.75" style="fill:none;stroke:#a3c9fa;stroke-miterlimit:10" id="polyline850"/><polyline points="235.98 164.31 252.15 164.31 252.3 61.75 235.98 61.75" style="fill:none;stroke:#a3c9fa;stroke-miterlimit:10" id="polyline852"/></g></svg>