<svg xmlns="http://www.w3.org/2000/svg" xmlns:svg="http://www.w3.org/2000/svg" id="Layer_1" width="167" height="167" x="0" y="0" version="1.1" viewBox="0 0 167 167" xml:space="preserve"><style id="style940" type="text/css">.st0,.st1{fill:#fff;stroke:#1259b5;stroke-width:10;stroke-linecap:round;stroke-linejoin:round;stroke-miterlimit:10}.st1{fill:none}.st2{fill:url(#SVGID_1_)}.st4{fill:#eacdb5}.st5{fill:none}.st6{fill:#e8ac83}.st7{fill:#1877f2}.st8{fill:none;stroke:#5facff;stroke-width:10;stroke-linecap:round;stroke-linejoin:round;stroke-miterlimit:10}.st9{fill:#1259b5}</style><g id="Layer_1_00000126304537090865833630000017533168244326997182_" transform="translate(-9.9254237,-19.3)"><g id="g988"><path id="path942" d="m 23.4,175.9 c 28.9,0 30.2,-37 53.5,-35.6" class="st0"/><path id="path944" d="m 124,166.6 c 15.2,0.5 10.2,-13.7 21.8,-13.7 8.2,0 8.6,16.5 18.8,16.5" class="st1"/><linearGradient id="SVGID_1_" x1="78.615" x2="157.016" y1="73.759" y2="79.676" gradientTransform="matrix(1,0,0,-1,0,202)" gradientUnits="userSpaceOnUse"><stop offset="0" style="stop-color:#1877f2" id="stop946"/><stop offset="1" style="stop-color:#1853f2" id="stop948"/></linearGradient><path id="path951" d="m 124.6,94.7 h -13.9 c -1.4,0 -2.5,1.1 -2.5,2.5 v 1.5 c 0,1.9 -1.5,3.4 -3.4,3.4 h -8.3 c -1.9,0 -3.4,-1.5 -3.4,-3.4 v -1.5 c 0,-1.4 -1.1,-2.5 -2.5,-2.5 h -14 c -4.6,0 -8.3,3.7 -8.3,8.3 v 25 c 0,12.4 6.1,24 16.2,31.1 l 10.2,-13.6 c 3,-4 8.9,-4 11.8,0 l 10,13.6 c 10.1,-7.1 16.1,-18.7 16.1,-31.1 v -25 c 0.2,-4.6 -3.4,-8.3 -8,-8.3 z" class="st2" style="fill:url(#SVGID_1_)"/><radialGradient id="SVGID_00000182490439516793001790000012132096816150068645_" cx="-196.57" cy="-42.561" r="28.591" gradientTransform="matrix(0,-1,-0.5261,0,79.0347,-86.2249)" gradientUnits="userSpaceOnUse"><stop offset=".64" style="stop-color:#0a5df2" id="stop953"/><stop offset="1" style="stop-color:#1877f2;stop-opacity:0" id="stop955"/></radialGradient><path style="fill:url(#SVGID_00000182490439516793001790000012132096816150068645_)" id="path958" d="m 124.6,94.7 h -13.9 c -1.4,0 -2.5,1.1 -2.5,2.5 v 1.5 c 0,1.9 -1.5,3.4 -3.4,3.4 h -8.3 c -1.9,0 -3.4,-1.5 -3.4,-3.4 v -1.5 c 0,-1.4 -1.1,-2.5 -2.5,-2.5 h -14 c -4.6,0 -8.3,3.7 -8.3,8.3 v 25 c 0,12.4 6.1,24 16.2,31.1 l 10.2,-13.6 c 3,-4 8.9,-4 11.8,0 l 10,13.6 c 10.1,-7.1 16.1,-18.7 16.1,-31.1 v -25 c 0.2,-4.6 -3.4,-8.3 -8,-8.3 z"/><g id="g962"><path id="path960" d="M 97.4,116.8 C 96.3,106.7 95.9,96.6 95.7,86.4 95.5,76.3 95.4,66.2 95.6,56 c 0.1,-2.8 2.4,-4.9 5.1,-4.9 2.7,0.1 4.8,2.2 4.9,4.9 0.3,20.2 0.2,40.5 -1.8,60.7 -0.4,3.9 -5.9,3.9 -6.4,0.1 z" class="st4"/></g><g id="g972"><path id="path964" d="m 102.9,92.3 v 0 c -0.2,0 -0.4,-0.1 -0.4,-0.3 0,-0.1 -0.2,-0.4 -0.3,-0.7 -0.8,-1.6 -2.8,-5.4 -3.1,-11.2 -0.2,-3.6 0.8,-7.9 1.6,-11.8 0.7,-3.3 1.3,-6.4 1.2,-8.4 0.2,0 0.5,0 0.7,-0.1 0.1,2.1 -0.5,5.2 -1.2,8.6 -0.8,3.8 -1.7,8.2 -1.5,11.6 0.2,5.7 2.2,9.4 3,10.9 0.3,0.5 0.4,0.7 0.4,0.9 0,0.3 -0.2,0.4 -0.4,0.5 z" class="st5"/><path id="path966" d="m 104.5,67.1 c 0.5,-2.8 0.9,-5.2 0.4,-7.7 -0.2,0.1 -0.5,0.1 -0.7,0.2 0.5,2.3 0.1,4.7 -0.3,7.4 -0.6,3.5 -1.4,7.9 -0.3,13.9 0.6,3 1.2,6.2 2.1,9.3 0,-0.9 0.1,-1.7 0.1,-2.6 -0.6,-2.3 -1,-4.6 -1.5,-6.9 -1.2,-5.8 -0.5,-10 0.2,-13.6 z" class="st6"/><path id="path968" d="m 96.9,90.1 c 0.1,0 0.1,0 0.2,0 0.2,-0.1 0.3,-0.3 0.2,-0.5 -1.4,-3.1 -0.6,-8.8 0.2,-14.7 0.8,-5.5 1.6,-11.1 0.6,-15.2 -0.3,0 -0.5,-0.1 -0.8,-0.1 1,4 0.2,9.7 -0.6,15.2 -0.5,3.7 -1,7.3 -1,10.3 0,0.1 0,0.3 0,0.4 0,1.7 0.3,3.3 0.8,4.5 0.1,0.1 0.3,0.1 0.4,0.1 z" class="st6"/><path id="path970" d="m 99.9,80 c -0.2,-3.5 0.7,-7.8 1.5,-11.6 0.7,-3.5 1.3,-6.5 1.2,-8.6 -0.3,0 -0.5,0 -0.7,0.1 0.1,2 -0.5,5.1 -1.2,8.4 -0.8,3.9 -1.7,8.3 -1.6,11.8 0.3,5.9 2.2,9.6 3.1,11.2 0.2,0.3 0.3,0.6 0.3,0.7 0,0.2 0.2,0.3 0.4,0.3 v 0 c 0.2,0 0.4,-0.2 0.3,-0.4 0,-0.2 -0.1,-0.4 -0.4,-0.9 -0.8,-1.6 -2.7,-5.3 -2.9,-11 z" class="st6"/></g><path id="path974" d="M 96.3,122.8 94.8,91.9 c 0,-8.2 11.8,-8.2 11.8,0 l -1.5,30.9 c -0.4,5.6 -8.4,5.6 -8.8,0 z" class="st7"/><path id="path976" d="M 100.7,60.9 C 87.1,60.9 75.9,49.8 75.9,36.1 v -5.9 c 0,-6 4.9,-10.9 10.9,-10.9 h 27.6 c 6,0 10.9,4.9 10.9,10.9 v 5.9 c 0.1,13.6 -11,24.8 -24.6,24.8 z M 87.9,31.2 v 4.9 c 0,7 5.7,12.8 12.8,12.8 7.1,0 12.8,-5.7 12.8,-12.8 v -4.9 c 0,0 -25.6,0 -25.6,0 z" class="st7"/><path id="path978" d="m 76.9,169.5 18,-24.1 c 3,-4 8.9,-4 11.8,0 l 26.2,35.3" class="st8"/><path id="path980" d="M 91,94.7 H 76.7 c -4.6,0 -8.3,3.7 -8.3,8.3 v 2.4 h 0.3 c 0.9,-3.6 4.1,-6.2 8,-6.2 H 91 c 1.2,0 2.2,-1 2.2,-2.2 0,-1.3 -1,-2.3 -2.2,-2.3 z" class="st7"/><path id="path982" d="M 93.1,97.7 C 92.8,98.5 92,99.1 91,99.1 H 76.7 c -4.6,0 -8.3,3.7 -8.3,8.3 v 0.1 h 1 c 1.4,-3 4.2,-5 7.4,-5 h 14 c 1.2,0 2.3,-1.1 2.3,-2.6 0.1,-0.3 0.1,-1.1 0,-2.2 z" class="st9"/><path id="path984" d="m 110.3,94.7 h 14.3 c 4.6,0 8.3,3.7 8.3,8.3 v 2.4 h -0.3 c -0.9,-3.6 -4.1,-6.2 -8,-6.2 h -14.3 c -1.2,0 -2.2,-1 -2.2,-2.2 0,-1.3 1,-2.3 2.2,-2.3 z" class="st7"/><path id="path986" d="m 108.3,97.7 c 0.3,0.8 1.1,1.4 2.1,1.4 h 14.3 c 4.6,0 8.3,3.7 8.3,8.3 v 0.1 h -1 c -1.4,-3 -4.2,-5 -7.4,-5 h -14 c -1.2,0 -2.3,-1.1 -2.3,-2.6 -0.2,-0.3 -0.1,-1.1 0,-2.2 z" class="st9"/></g></g></svg>